<?xml version="1.0" encoding="UTF-8"?>
<svg id="Layer_2" data-name="Layer 2" xmlns="http://www.w3.org/2000/svg" viewBox="0 0 231.78 57.46">
  <defs>
    <style>
      .cls-1 {
        fill: #9f9ba3;
      }

      .cls-2 {
        fill: #dad4e2;
      }
    </style>
  </defs>
  <g id="Layer_2-2" data-name="Layer 2-2">
    <g>
      <path class="cls-2" d="m28.73,2.5h174.32c14.49,0,26.23,11.74,26.23,26.23h0c0,14.49-11.74,26.23-26.23,26.23H28.73c-14.49,0-26.23-11.74-26.23-26.23h0C2.5,14.24,14.24,2.5,28.73,2.5Z"/>
      <path class="cls-1" d="m203.05,57.46H28.73C12.89,57.46,0,44.57,0,28.73S12.89,0,28.73,0h174.32c15.84,0,28.73,12.89,28.73,28.73s-12.89,28.73-28.73,28.73ZM28.73,5C15.65,5,5,15.65,5,28.73s10.65,23.73,23.73,23.73h174.32c13.08,0,23.73-10.65,23.73-23.73s-10.64-23.73-23.73-23.73H28.73Z"/>
    </g>
    <g>
      <path class="cls-1" d="m59.07,34.98c0,.66-.24,1.23-.73,1.71s-1.05.7-1.75.7h-.04c-.7,0-1.29-.23-1.75-.7s-.73-1.05-.73-1.71v-13.08c0-.81.29-1.51.88-2.1s1.29-.87,2.14-.87h7.24c.65,0,1.17.25,1.56.74.37.47.49.98.37,1.56v.07c-.11.42-.33.77-.67,1.05-.37.3-.79.45-1.27.45h-5.25v2.08h5.3c.55,0,1.02.18,1.38.55s.58.83.58,1.34v.03c0,.52-.19.96-.57,1.32-.38.39-.84.58-1.4.58h-5.3v6.28h0Z"/>
      <path class="cls-1" d="m75.7,23.26c2.02,0,3.74.71,5.14,2.14,1.41,1.4,2.11,3.08,2.11,5.04s-.7,3.66-2.11,5.05c-1.41,1.42-3.12,2.14-5.14,2.14-.14,0-.27,0-.38,0-.13,0-.27,0-.41,0-2.01,0-3.72-.7-5.13-2.11s-2.11-3.1-2.11-5.08.7-3.64,2.1-5.04c1.42-1.42,3.13-2.14,5.14-2.14.14,0,.28,0,.41.01.11,0,.24-.01.38,0Zm-.38,10.56c.78,0,1.46-.32,2.04-.96.59-.67.88-1.48.88-2.43s-.29-1.76-.88-2.43c-.58-.63-1.26-.95-2.04-.95s-1.47.33-2.06.98-.88,1.45-.88,2.4.3,1.76.9,2.43c.58.64,1.26.96,2.04.96Z"/>
      <path class="cls-1" d="m93.42,23.88c.95,0,1.63.42,2.03,1.25.38.81.29,1.56-.26,2.27l-2.58,3.23,2.58,3.24c.55.7.64,1.46.26,2.27-.4.83-1.08,1.25-2.03,1.25h-.05c-.83,0-1.46-.34-1.9-1.02l-1.78-2.76-1.79,2.76c-.43.68-1.06,1.02-1.9,1.02h-.04c-.96,0-1.64-.42-2.04-1.25-.39-.81-.3-1.56.26-2.27l2.58-3.24-2.58-3.23c-.56-.7-.65-1.46-.26-2.27.4-.83,1.09-1.25,2.04-1.25h.04c.83,0,1.47.34,1.9,1.02l1.79,2.76,1.78-2.76c.44-.68,1.07-1.02,1.9-1.02h.05Z"/>
      <path class="cls-1" d="m101.44,22.47c-.48.48-1.09.73-1.81.73s-1.33-.25-1.83-.75-.73-1.06-.73-1.74.24-1.25.73-1.73c.5-.5,1.11-.75,1.83-.75s1.33.25,1.82.75c.49.47.74,1.05.74,1.73s-.25,1.27-.75,1.77h0Zm-1.77,14.92c-.7,0-1.29-.24-1.77-.71s-.71-1.04-.71-1.7v-8.71c0-.65.23-1.21.69-1.67.49-.49,1.09-.74,1.79-.74h.04c.69,0,1.28.24,1.75.71s.73,1.05.73,1.7v8.71c0,.66-.24,1.22-.71,1.67-.48.49-1.07.74-1.77.74h-.04Z"/>
      <path class="cls-1" d="m111.19,33.5c.4.2.65.54.73,1,.06.38.01.79-.15,1.24-.4,1.1-1.02,1.65-1.86,1.65-1.67,0-2.89-.74-3.65-2.23-.59-1.12-.89-2.64-.9-4.55v-3.64h-.22c-.48,0-.88-.16-1.2-.47s-.49-.71-.49-1.15v-.03c0-.43.15-.8.46-1.11.33-.34.74-.51,1.23-.51h.22v-.86c0-.74.31-1.34.92-1.82.61-.47,1.29-.59,2.06-.38h.04c.52.15.94.42,1.25.84.32.41.47.87.47,1.36v.86h.88c.47,0,.87.17,1.2.51.33.31.49.68.49,1.11v.03c0,.44-.16.82-.49,1.13-.33.33-.73.49-1.2.49h-.88v3.9c0,1.38.36,2.25,1.08,2.62h0Z"/>
      <path class="cls-1" d="m121.58,23.26c2.02,0,3.74.71,5.14,2.14,1.41,1.4,2.11,3.08,2.11,5.04s-.7,3.66-2.11,5.05c-1.41,1.42-3.12,2.14-5.14,2.14-.14,0-.27,0-.38,0-.13,0-.27,0-.41,0-2.01,0-3.72-.7-5.13-2.11-1.41-1.41-2.11-3.1-2.11-5.08s.7-3.64,2.1-5.04c1.42-1.42,3.13-2.14,5.14-2.14.14,0,.28,0,.41.01.11,0,.24-.01.38,0Zm-.38,10.56c.78,0,1.46-.32,2.04-.96.59-.67.88-1.48.88-2.43s-.29-1.76-.88-2.43c-.58-.63-1.26-.95-2.04-.95s-1.47.33-2.06.98-.88,1.45-.88,2.4.3,1.76.9,2.43c.58.64,1.26.96,2.04.96Z"/>
      <path class="cls-1" d="m136.1,18.88c3.33,0,6.06.83,8.19,2.49,2.26,1.76,3.39,4.13,3.39,7.12,0,2.68-.94,4.84-2.81,6.49-2,1.75-4.76,2.62-8.31,2.62-.62,0-2.12-.06-4.52-.17-.47-.03-.88-.2-1.21-.53-.3-.31-.45-.68-.45-1.12v-15.04c0-.42.15-.79.45-1.09.31-.33.69-.52,1.16-.55,2.09-.14,3.46-.21,4.11-.21h0Zm.37,15.21c1.74,0,3.23-.58,4.48-1.73,1.23-1.12,1.85-2.5,1.85-4.13s-.62-3-1.85-4.13c-1.25-1.15-2.74-1.73-4.48-1.73h0c-.28,0-.53.11-.75.32-.22.22-.33.49-.33.82v9.44c0,.33.11.6.33.82.22.21.47.32.75.32,0,0,0,0,0,0Z"/>
      <path class="cls-1" d="m163.02,35.99c-.09.39-.29.71-.62.96-.34.27-.73.41-1.17.42-1.29,0-2.61,0-3.97,0-.14,0-.27,0-.4,0-.12,0-.25,0-.4,0-2,0-3.7-.68-5.1-2.04-1.39-1.35-2.08-2.98-2.08-4.88s.69-3.54,2.08-4.89c1.41-1.36,3.11-2.04,5.1-2.04.14,0,.27,0,.4.01.12,0,.25-.01.4-.01,2,0,3.69.68,5.09,2.04,1.4,1.35,2.1,2.98,2.1,4.89h0c0,.42-.15.77-.46,1.07-.33.3-.71.45-1.16.45h-8.9c.16.41.51.81,1.07,1.19.56.39,1.19.58,1.87.58h4.35c.61,0,1.11.22,1.48.7.36.45.47.95.34,1.52v.03h-.02Zm-6.16-8.82c-.67,0-1.28.18-1.83.55-.55.38-.91.76-1.07,1.13h5.79c-.16-.39-.51-.76-1.05-1.13-.55-.37-1.16-.55-1.83-.55h0Z"/>
      <path class="cls-1" d="m176.26,23.85c.82,0,1.45.32,1.91.96.46.66.57,1.35.3,2.07l-2.87,7.96c-.27.76-.74,1.37-1.41,1.83-.67.47-1.42.71-2.25.71h-.05c-.84,0-1.6-.25-2.28-.74-.66-.47-1.12-1.09-1.38-1.86l-2.73-7.94c-.25-.73-.15-1.42.32-2.06.45-.63,1.09-.95,1.91-.95h.25c.53,0,1,.15,1.41.45.42.32.7.72.84,1.2,1.15,3.88,1.84,6.35,2.06,7.42h-.46c.23-1.03.94-3.51,2.12-7.45.15-.47.44-.87.87-1.17.4-.3.87-.45,1.4-.45h.05v.02Z"/>
    </g>
    <path class="cls-1" d="m192.25,20.33c.12.2.15.42.09.64s-.19.4-.4.52h0c-.22.13-.45.16-.68.1-.24-.06-.42-.2-.55-.41l-1.14-1.93h-.72v1.49c0,.24-.09.44-.26.62s-.39.26-.64.26h0c-.26,0-.47-.09-.64-.27-.17-.17-.26-.37-.26-.61v-5.12c0-.24.09-.45.26-.62.18-.18.4-.27.65-.27h1.85c.09,0,.2,0,.31.02h.04c.56.09,1.02.35,1.39.77.36.42.55.91.55,1.47,0,.45-.14.89-.42,1.33-.1.17-.21.3-.34.4l.94,1.59v.02Zm-3.41-2.46h.65c.23,0,.42-.09.58-.26.17-.18.26-.4.26-.66s-.09-.48-.26-.66c-.16-.18-.35-.26-.58-.26h-.65v1.84Z"/>
    <path class="cls-1" d="m189.42,25.94c-4.14,0-7.52-3.37-7.52-7.52s3.37-7.52,7.52-7.52,7.51,3.37,7.51,7.52-3.37,7.52-7.51,7.52Zm0-13.03c-3.04,0-5.52,2.47-5.52,5.52s2.47,5.52,5.52,5.52,5.51-2.47,5.51-5.52-2.47-5.52-5.51-5.52Z"/>
  </g>
</svg>