<?xml version="1.0" encoding="utf-8"?>
<!-- Generator: Adobe Illustrator 27.7.0, SVG Export Plug-In . SVG Version: 6.00 Build 0)  -->
<svg version="1.1" id="Layer_2_00000170264581178000604610000001642423493270964926_"
	 xmlns="http://www.w3.org/2000/svg" xmlns:xlink="http://www.w3.org/1999/xlink" x="0px" y="0px" viewBox="0 0 38.1 42.6"
	 style="enable-background:new 0 0 38.1 42.6;" xml:space="preserve">
<style type="text/css">
	.st0{fill:#5E5E5E;}
</style>
<g id="Layer_1-2">
	<g>
		<path class="st0" d="M33.6,42.1c-0.7,0-1.4-0.2-2-0.5L2.5,24.8c-1.2-0.7-2-2-2-3.5s0.8-2.7,2-3.5L31.6,1c0.6-0.4,1.3-0.5,2-0.5
			c1.9,0,4,1.5,4,4v33.6C37.6,40.6,35.5,42.1,33.6,42.1L33.6,42.1z"/>
		<path class="st0" d="M33.6,1L33.6,1c1.7,0,3.5,1.3,3.5,3.5v33.6c0,2.2-1.8,3.5-3.5,3.5c-0.6,0-1.2-0.2-1.7-0.5l-14.6-8.4L2.7,24.3
			c-1.1-0.6-1.7-1.8-1.7-3s0.6-2.4,1.7-3l14.6-8.4l14.5-8.4C32.4,1.2,33,1,33.6,1 M33.6,0c-0.8,0-1.5,0.2-2.2,0.6L16.8,9L2.2,17.4
			c-3,1.7-3,6,0,7.8l14.6,8.4L31.3,42c0.7,0.4,1.5,0.6,2.2,0.6c2.3,0,4.5-1.9,4.5-4.5V4.5C38.1,1.9,35.9,0,33.6,0L33.6,0z"/>
	</g>
</g>
</svg>
