<?xml version="1.0" encoding="utf-8"?>
<!-- Generator: Adobe Illustrator 27.7.0, SVG Export Plug-In . SVG Version: 6.00 Build 0)  -->
<svg version="1.1" id="Layer_2_00000163071070103214959740000007107314511760478106_"
	 xmlns="http://www.w3.org/2000/svg" xmlns:xlink="http://www.w3.org/1999/xlink" x="0px" y="0px" viewBox="0 0 42.6 38.1"
	 style="enable-background:new 0 0 42.6 38.1;" xml:space="preserve">
<style type="text/css">
	.st0{fill:#5E5E5E;}
</style>
<g id="Layer_1-2">
	<g>
		<path class="st0" d="M21.3,37.6c-1.4,0-2.7-0.8-3.5-2L1,6.5c-0.7-1.2-0.7-2.7,0-4c0.7-1.2,2-2,3.5-2h33.6c1.4,0,2.7,0.8,3.5,2
			c0.7,1.2,0.7,2.7,0,4L24.8,35.6C24,36.8,22.7,37.6,21.3,37.6L21.3,37.6z"/>
		<path class="st0" d="M38.1,1c1.3,0,2.4,0.6,3,1.7s0.6,2.4,0,3.5l-8.4,14.6l-8.4,14.6c-0.6,1.1-1.8,1.7-3,1.7s-2.4-0.7-3-1.7
			L9.9,20.8L1.5,6.2c-0.6-1.1-0.6-2.4,0-3.5S3.2,1,4.5,1H38.1 M38.1,0H4.5C1,0-1.1,3.7,0.6,6.7L9,21.3l8.4,14.6
			c0.9,1.5,2.4,2.2,3.9,2.2s3-0.8,3.9-2.2l8.4-14.5L42,6.7C43.7,3.7,41.6,0,38.1,0L38.1,0L38.1,0z"/>
	</g>
</g>
</svg>
