<?xml version="1.0" encoding="utf-8"?>
<!-- Generator: Adobe Illustrator 27.7.0, SVG Export Plug-In . SVG Version: 6.00 Build 0)  -->
<svg version="1.1" id="Layer_2_00000183954421632894619170000015694173401298664340_"
	 xmlns="http://www.w3.org/2000/svg" xmlns:xlink="http://www.w3.org/1999/xlink" x="0px" y="0px" viewBox="0 0 42.6 38.1"
	 style="enable-background:new 0 0 42.6 38.1;" xml:space="preserve">
<style type="text/css">
	.st0{fill:#5E5E5E;}
</style>
<g id="Layer_1-2">
	<g>
		<path class="st0" d="M4.5,37.6c-1.4,0-2.7-0.8-3.5-2c-0.7-1.2-0.7-2.7,0-4L17.8,2.5c0.7-1.2,2-2,3.5-2s2.7,0.8,3.5,2l16.8,29.1
			c0.7,1.3,0.7,2.7,0,4s-2,2-3.5,2L4.5,37.6L4.5,37.6z"/>
		<path class="st0" d="M21.3,1c1.3,0,2.4,0.6,3,1.7l8.4,14.6l8.4,14.5c0.6,1.1,0.6,2.4,0,3.5s-1.8,1.7-3,1.7H4.5
			c-1.3,0-2.4-0.7-3-1.7s-0.6-2.4,0-3.5l8.4-14.6l8.4-14.6C18.9,1.6,20,1,21.3,1 M21.3,0c-1.5,0-3,0.8-3.9,2.2L9,16.8L0.6,31.3
			c-1.7,3,0.4,6.7,3.9,6.7h33.6c3.5,0,5.6-3.7,3.9-6.7l-8.4-14.5L25.2,2.2C24.3,0.7,22.8,0,21.3,0L21.3,0z"/>
	</g>
</g>
</svg>
