<?xml version="1.0" encoding="UTF-8"?>
<svg id="Layer_2" data-name="Layer 2" xmlns="http://www.w3.org/2000/svg" viewBox="0 0 96.17 96.17">
  <defs>
    <style>
      .cls-1 {
        fill: #8e8e8e;
      }
    </style>
  </defs>
  <g id="Layer_1-2" data-name="Layer 1">
    <path class="cls-1" d="m96.17,48.09c0-12.84-5-24.92-14.08-34C73.01,5,60.93,0,48.09,0S23.17,5,14.08,14.08C5,23.17,0,35.24,0,48.09s5,24.92,14.08,34c9.08,9.08,21.16,14.08,34,14.08s24.92-5,34-14.08c9.08-9.08,14.08-21.16,14.08-34Zm-7.53,16.44c-3.74-3.54-8.54-6.04-13.76-7.78.29-2.83.43-5.73.43-8.66s-.15-5.83-.43-8.66c5.22-1.74,10.02-4.24,13.76-7.78,2.07,5.08,3.21,10.63,3.21,16.44,0,5.81-1.14,11.36-3.21,16.44Zm-63.47-16.44c0-2.52.11-5,.33-7.43,6.8,1.71,14.01,2.33,20.41,2.45v9.98c-6.4.11-13.61.74-20.41,2.44-.22-2.43-.33-4.92-.33-7.44Zm20.75,43.57c-5.08-.94-9.87-5.16-13.67-12.13-.07-.13-.14-.25-.2-.38,4.42-3.13,9.09-4.95,13.87-5.37v17.88h0Zm4.32-17.88c4.78.42,9.46,2.24,13.87,5.37-.07.13-.13.26-.2.38-3.8,6.97-8.59,11.19-13.67,12.13v-17.88h0Zm0-69.25c5.08.94,9.87,5.16,13.67,12.13.07.13.14.25.2.38-4.42,3.13-9.09,4.95-13.87,5.37V4.52h0Zm-4.32,17.88c-4.78-.42-9.46-2.24-13.87-5.37.07-.13.13-.26.2-.38,3.8-6.97,8.59-11.19,13.67-12.13v17.88Zm4.32,4.34c5.46-.41,10.77-2.35,15.75-5.74,1.92,4.58,3.32,9.76,4.14,15.3-5.7,1.5-12.39,2.35-19.89,2.48v-12.04h0Zm17.3-12.45c-1.68-3.03-3.55-5.61-5.57-7.7,3.19,1.07,6.22,2.5,9.04,4.24-1.13,1.25-2.29,2.4-3.47,3.46Zm-38.92,0c-1.18-1.06-2.34-2.21-3.47-3.46,2.82-1.74,5.85-3.17,9.04-4.24-2.02,2.1-3.89,4.68-5.57,7.7Zm17.3,12.45v12.04c-7.5-.14-14.2-.98-19.89-2.48.82-5.54,2.22-10.72,4.14-15.3,4.98,3.39,10.29,5.34,15.75,5.74Zm0,30.67v12.03c-5.46.41-10.77,2.35-15.75,5.74-1.92-4.58-3.32-9.76-4.14-15.3,5.7-1.5,12.39-2.34,19.89-2.48Zm-17.3,24.48c1.68,3.03,3.55,5.61,5.57,7.71-3.19-1.07-6.23-2.5-9.05-4.25,1.13-1.25,2.29-2.4,3.47-3.46Zm38.92,0c1.18,1.06,2.34,2.21,3.47,3.46-2.82,1.74-5.85,3.17-9.05,4.25,2.02-2.1,3.89-4.68,5.57-7.71Zm-17.3-12.45v-12.03c7.5.14,14.2.98,19.89,2.48-.82,5.54-2.22,10.72-4.14,15.3-4.98-3.39-10.29-5.34-15.75-5.74Zm0-16.36v-9.98c6.4-.11,13.61-.74,20.41-2.44.22,2.43.33,4.92.33,7.43s-.11,5-.33,7.44c-6.8-1.71-14.01-2.33-20.41-2.44Zm36.44-25.59s-.03.03-.04.04c-2.9,3.12-7.08,5.63-12.33,7.49-.95-6.07-2.57-11.74-4.78-16.72,1.74-1.48,3.43-3.15,5.07-4.99,4.97,3.8,9.11,8.64,12.08,14.19ZM21.57,13.3c1.64,1.85,3.33,3.51,5.07,4.99-2.21,4.98-3.83,10.66-4.78,16.72-5.25-1.86-9.43-4.37-12.33-7.49-.01-.01-.03-.03-.04-.04,2.97-5.55,7.11-10.39,12.08-14.19ZM7.53,31.64c3.74,3.54,8.54,6.04,13.76,7.78-.29,2.83-.43,5.73-.43,8.66s.15,5.83.43,8.66c-5.22,1.74-10.02,4.24-13.76,7.78-2.07-5.08-3.21-10.63-3.21-16.44s1.14-11.36,3.21-16.44Zm1.95,37.04s.03-.03.04-.04c2.9-3.11,7.08-5.63,12.33-7.48.95,6.07,2.57,11.74,4.78,16.72-1.74,1.48-3.43,3.15-5.07,4.99-4.97-3.8-9.11-8.64-12.08-14.19Zm65.12,14.19c-1.64-1.85-3.33-3.51-5.07-4.99,2.21-4.98,3.83-10.65,4.78-16.72,5.25,1.86,9.43,4.37,12.33,7.48.01.02.03.03.04.04-2.97,5.55-7.11,10.39-12.08,14.19Z"/>
  </g>
</svg>