<?xml version="1.0" encoding="UTF-8"?>
<svg id="Layer_2" data-name="Layer 2" xmlns="http://www.w3.org/2000/svg" viewBox="0 0 117.96 16.46">
  <defs>
    <style>
      .cls-1 {
        fill: #fff;
      }

      .cls-2 {
        fill: #424242;
      }
    </style>
  </defs>
  <g id="Layer_2-2" data-name="Layer 2">
    <g>
      <g id="Layer_2-2" data-name="Layer 2-2">
        <g>
          <path class="cls-1" d="m92.45,2.82c1.06,0,2.25,2.18,3.56,6.53.23.61.34,1.12.34,1.55,0,.29-.05.53-.14.74-.26.53-.69.8-1.31.8-.88,0-1.44-.43-1.67-1.28-.24-.85-.71-2.23-1.42-4.13-1.04,1.47-1.99,2.2-2.85,2.2h-.03c-.87-.02-1.66-.61-2.36-1.78l-.95,3.16c-.34,1.59-1,2.39-1.98,2.39-.51,0-.9-.2-1.2-.59-.16-.21-.24-.48-.24-.78,0-.26.05-.55.17-.87.58-2.54,1.2-4.72,1.83-6.52.4-.84,1.03-1.26,1.9-1.26s1.81.8,2.94,2.38c.14,0,.49-.45,1.05-1.33.51-.81,1.21-1.21,2.09-1.21.09,0,.18,0,.27,0h0Z"/>
          <path class="cls-1" d="m98.64,6.33h.63c.8.07,1.2.4,1.2,1,0,.06,0,.12,0,.18v.21c-.16.89-.24,1.52-.24,1.9v.84c.11,1.17.15,1.77.15,1.83,0,.64-.53,1.04-1.58,1.19-.8-.1-1.29-.59-1.47-1.46-.18-.87-.27-1.49-.27-1.83,0-2.57.53-3.86,1.59-3.86h0Zm.79-4.57c.38,0,.69.26.93.78h.24c.59,0,.89.18.89.56v.14c0,.09-.2.36-.61.81.16.33.24.61.24.84,0,.05,0,.1,0,.15-.05.26-.23.39-.56.39s-.75-.17-1.27-.49c-.54.37-.92.56-1.14.56s-.39-.07-.51-.21c-.07-.08-.11-.19-.11-.32,0-.08.02-.18.05-.28.08-.25.16-.45.24-.61-.46-.41-.69-.76-.69-1.05,0-.24.42-.4,1.27-.49.36-.52.7-.78,1.03-.78h0Z"/>
          <path class="cls-1" d="m110.94,2.76c.84.23,1.38,1.15,1.61,2.79.19,1.39.29,2.7.29,3.95v.65c-.04,1.44-.64,2.27-1.79,2.49-1.01,0-2.15-.75-3.41-2.24-1.4-1.45-2.15-2.18-2.22-2.18h-.07l-.08.14v3.16c0,.58-.37,1-1.11,1.26h-.8c-.79-.22-1.19-.64-1.19-1.26v-3.51c0-1.94.32-3.12.95-3.51.37-.23.71-.35,1.03-.35h.32c1.02,0,2.55,1.2,4.61,3.6.1.04.18.07.24.07l.07-.14c-.26-1.24-.38-2.22-.38-2.95,0-.9.19-1.42.58-1.55.22-.28.67-.42,1.35-.42h0Z"/>
          <path class="cls-1" d="m115.11,6.33h.63c.8.07,1.2.4,1.2,1,0,.06,0,.12,0,.18v.21c-.16.89-.24,1.52-.24,1.9v.84c.1,1.17.15,1.77.15,1.83,0,.64-.53,1.04-1.58,1.19-.8-.1-1.29-.59-1.47-1.46-.18-.87-.27-1.49-.27-1.83,0-2.57.53-3.86,1.59-3.86h0Zm.79-4.57c.38,0,.69.26.93.78h.24c.59,0,.89.18.89.56v.14c0,.09-.2.36-.61.81.16.33.24.61.24.84,0,.05,0,.1,0,.15-.05.26-.23.39-.56.39s-.75-.17-1.27-.49c-.54.37-.92.56-1.14.56s-.39-.07-.51-.21c-.07-.08-.11-.19-.11-.32,0-.08.02-.18.05-.28.08-.25.16-.45.24-.61-.46-.41-.68-.76-.68-1.05,0-.24.42-.4,1.27-.49.36-.52.7-.78,1.03-.78h0Z"/>
        </g>
      </g>
      <g>
        <path class="cls-2" d="m0,8.23c0-1.26.45-2.34,1.34-3.23s1.97-1.34,3.23-1.34,2.34.45,3.23,1.34,1.34,1.97,1.34,3.23-.45,2.34-1.34,3.23c-.89.89-1.97,1.34-3.23,1.34v3.66H0v-8.23Z"/>
        <path class="cls-2" d="m17.87,5c.89.89,1.34,1.97,1.34,3.23s-.45,2.34-1.34,3.23c-.89.89-1.97,1.34-3.23,1.34s-2.34-.45-3.23-1.34c-.89-.89-1.34-1.97-1.34-3.23s.45-2.34,1.34-3.23,1.97-1.34,3.23-1.34,2.34.45,3.23,1.34Z"/>
        <path class="cls-2" d="m29.26,8.69c-.1,1.07-.54,1.99-1.32,2.77-.9.9-1.98,1.34-3.24,1.34s-2.34-.45-3.23-1.34c-.89-.89-1.34-1.97-1.34-3.23s.45-2.34,1.34-3.23,1.97-1.34,3.23-1.34,2.34.45,3.24,1.34c.78.79,1.22,1.71,1.32,2.78h-4.56c-.13,0-.24.04-.32.13s-.13.2-.13.32.04.24.13.32.2.13.32.13h4.56Z"/>
        <path class="cls-2" d="m34.31,5.48c.13-.16.27-.33.43-.48.89-.89,1.97-1.34,3.23-1.34h.92v4.12h-.92c-.13,0-.24.04-.32.13-.09.09-.13.2-.13.32s.04.24.13.32c.09.09.2.13.32.13h.92v4.12h-.92c-1.26,0-2.34-.45-3.23-1.34-.16-.15-.3-.31-.43-.48v1.82h-4.12V0h4.12v5.48Z"/>
        <path class="cls-2" d="m48.95,10.06v2.75h-4.57c-1.26,0-2.34-.45-3.23-1.34-.89-.89-1.34-1.97-1.34-3.23s.45-2.34,1.34-3.23,1.97-1.34,3.23-1.34,2.34.45,3.23,1.34,1.34,1.97,1.34,3.23v.91h-4.57c-.13,0-.24.04-.32.13s-.13.2-.13.33.04.24.13.32c.09.09.2.13.32.13,0,0,4.57,0,4.57,0Z"/>
        <path class="cls-2" d="m54.44,12.81c-1.26,0-2.34-.45-3.23-1.34-.89-.89-1.34-1.97-1.34-3.23V0h4.57v2.74h2.75v4.57h-2.29c-.13,0-.24.04-.32.13-.09.09-.13.2-.13.32s.04.24.13.32c.09.09.2.13.32.13h2.29v4.57h-2.75v.03Z"/>
        <path class="cls-2" d="m62.67,12.81c-1.26,0-2.34-.45-3.23-1.34-.89-.89-1.34-1.97-1.34-3.23V0h4.57v2.74h2.75v4.57h-2.29c-.13,0-.24.04-.32.13-.09.09-.13.2-.13.32s.04.24.13.32c.09.09.2.13.32.13h2.29v4.57h-2.75v.03Z"/>
        <path class="cls-2" d="m74.14,5c.89.89,1.34,1.97,1.34,3.23s-.45,2.34-1.34,3.23c-.89.89-1.97,1.34-3.23,1.34s-2.34-.45-3.23-1.34-1.34-1.97-1.34-3.23.45-2.34,1.34-3.23,1.97-1.34,3.23-1.34,2.34.45,3.23,1.34Z"/>
      </g>
    </g>
  </g>
</svg>