<?xml version="1.0" encoding="UTF-8"?>
<svg id="Layer_2" data-name="Layer 2" xmlns="http://www.w3.org/2000/svg" viewBox="0 0 96.11 96.11">
  <defs>
    <style>
      .cls-1 {
        fill: #fff;
      }

      .cls-2 {
        fill-rule: evenodd;
      }

      .cls-2, .cls-3 {
        fill: #fc8759;
      }

      .cls-4 {
        fill: none;
        stroke: #fc8759;
        stroke-miterlimit: 10;
        stroke-width: 3px;
      }
    </style>
  </defs>
  <g id="Layer_1-2" data-name="Layer 1">
    <g>
      <g id="Github-11">
        <g id="Github-12">
          <g>
            <path class="cls-2" d="m37.15,93.75c0-1.16-.08-12.17-.08-15.86-12.34,2.67-14.91-5.24-14.91-5.24-2.01-5.13-4.92-6.51-4.92-6.51-4.03-2.74.3-2.68.3-2.68,2.85.39,5.36,2.08,6.8,4.57,3.95,6.78,10.38,4.83,12.92,3.73.19-2.25,1.19-4.36,2.81-5.93-9.86-1.12-20.22-4.94-20.22-21.94-.06-4.41,1.58-8.67,4.59-11.89-1.37-3.82-1.21-8.03.43-11.74,0,0,3.73-1.19,12.19,4.55,7.27-1.99,14.95-1.99,22.22,0,8.33-5.78,12.06-4.59,12.06-4.59,1.64,3.71,1.8,7.92.43,11.74,3,3.23,4.64,7.49,4.57,11.89,0,17.05-10.36,20.8-20.24,21.9,2.13,2.18,3.23,5.18,3,8.22,0,5.93.08,18.3.08,19.77h-22.01Z"/>
            <path class="cls-3" d="m59.02,94.18l-21.6.09-1.12-.25c0-.41-.01-7.39-.02-8.59-.02-1.85-.05-4.32-.05-6.49-12.06,2.14-14.84-5.93-14.87-6.02-1.83-4.64-4.45-5.98-4.48-6-1.25-.84-2.51-1.87-2.14-3.04.37-1.18,2.1-1.28,2.82-1.28,3.24.44,5.95,2.26,7.54,5,3.27,5.61,8.35,4.75,11.37,3.56.23-1.7.89-3.31,1.91-4.68-8.76-1.27-19.38-5.36-19.38-22.59-.06-4.47,1.52-8.74,4.47-12.09-1.27-3.91-1.05-8.11.62-11.89l.16-.35.37-.12c.41-.14,4.27-1.13,12.61,4.43,7.17-1.89,14.73-1.89,21.9,0,8.21-5.6,12.06-4.6,12.48-4.47l.37.12.16.35c1.67,3.78,1.88,7.98.62,11.89,2.94,3.35,4.52,7.63,4.45,12.11,0,17.23-10.65,21.29-19.42,22.54,1.6,2.19,2.38,4.89,2.18,7.63,0,3.89.04,8.14.06,10.97.01,1.41.02,8.52.02,9.01l-1.01.17Zm-21.01-1.03h20.29c0-.54,0-7.3-.02-8.13-.02-2.83-.06-7.09-.06-11.05.21-2.86-.8-5.61-2.76-7.62l-1.23-1.26,1.75-.2c9.07-1.01,19.48-4.31,19.48-21.05.07-4.22-1.47-8.23-4.34-11.31l-.36-.38.18-.49c1.25-3.49,1.16-7.26-.23-10.68-1.06-.08-4.59.1-10.96,4.52l-.33.23-.39-.11c-7.12-1.95-14.65-1.95-21.76,0l-.38.1-.33-.22c-6.47-4.39-10.01-4.57-11.1-4.48-1.39,3.42-1.47,7.19-.23,10.68l.18.49-.36.38c-2.87,3.08-4.41,7.09-4.35,11.29,0,16.74,10.4,20.07,19.46,21.1l1.81.2-1.31,1.27c-1.48,1.42-2.38,3.34-2.56,5.38l-.04.51-.47.2c-2.79,1.21-9.74,3.24-14-4.08-1.32-2.28-3.57-3.79-6.18-4.15-.27,0-.65.05-.9.13.16.19.5.52,1.21,1h0s3.13,1.53,5.24,6.9c.12.34,2.55,7.17,13.93,4.71l1.04-.23v1.07c0,2.36.03,5.36.06,7.51,0,.66.01,7.29.02,7.75Z"/>
          </g>
          <g>
            <path class="cls-1" d="m20.18,66.15c0,.22-.43.28-.75.13s-.5-.45-.41-.67.45-.28.76-.13.5.45.39.67Z"/>
            <path class="cls-1" d="m19.81,66.58c-.15,0-.32-.03-.47-.1-.43-.2-.65-.62-.52-.95.06-.13.17-.24.32-.3.22-.08.49-.06.74.05.25.12.44.31.51.53.05.14.05.27,0,.39-.02.11-.08.21-.19.28-.1.07-.24.1-.4.1Zm-.38-.97s-.09,0-.13.02c-.03.01-.06.03-.07.06-.04.1.08.29.3.39.2.09.41.07.45.03v-.06s.02-.06,0-.1c-.04-.1-.15-.21-.29-.28-.09-.04-.18-.06-.27-.06Z"/>
          </g>
          <g>
            <path class="cls-1" d="m21.99,68.15c-.21.21-.63.11-.91-.21-.27-.23-.33-.62-.13-.91.22-.21.62-.11.91.21s.35.73.13.91Z"/>
            <path class="cls-1" d="m21.7,68.47h-.02c-.27,0-.55-.15-.76-.39-.33-.27-.41-.79-.15-1.18.34-.32.87-.23,1.25.18.22.23.34.53.32.78-.01.18-.08.33-.2.43-.11.11-.27.17-.44.17Zm-.46-1.34c-.06,0-.11.02-.15.05-.1.16-.06.43.12.59.15.17.32.26.47.26.05,0,.11,0,.15-.05h.01s.05-.09.06-.15c0-.14-.07-.32-.21-.46-.15-.16-.32-.25-.46-.25Z"/>
          </g>
          <g>
            <path class="cls-1" d="m23.74,70.72c-.28.19-.73,0-.99-.39s-.28-.88,0-1.06.71,0,.99.37.28.88,0,1.08Z"/>
            <path class="cls-1" d="m23.49,71.01c-.32,0-.68-.2-.92-.56-.15-.23-.24-.48-.24-.72,0-.28.1-.51.3-.64.36-.24.92-.06,1.28.42.19.26.29.59.24.88-.03.21-.13.39-.29.5h0c-.11.08-.24.11-.37.11Zm-.48-1.6c-.05,0-.1.01-.14.04-.09.06-.11.2-.11.27,0,.16.06.33.17.49.21.31.53.43.69.33.07-.06.1-.15.11-.22.03-.18-.04-.39-.16-.56-.17-.22-.39-.36-.56-.36Z"/>
          </g>
          <g>
            <path class="cls-1" d="m26.12,73.18c-.24.26-.76.19-1.14-.17s-.5-.88-.24-1.14.76-.19,1.14.17.5.88.24,1.14Z"/>
            <path class="cls-1" d="m25.72,73.55c-.3,0-.63-.14-.88-.38-.28-.26-.44-.61-.45-.92,0-.21.07-.39.2-.52.35-.35.98-.27,1.44.16.28.26.44.61.45.92,0,.21-.07.39-.2.52-.13.14-.31.21-.52.22-.01,0-.02,0-.03,0Zm-.57-1.62c-.1,0-.19.03-.26.09-.05.05-.07.12-.07.21,0,.2.12.43.31.61.18.17.41.26.61.26.07,0,.16-.02.23-.09h0c.05-.06.07-.13.07-.22,0-.2-.12-.43-.31-.61-.18-.17-.4-.26-.58-.26Z"/>
          </g>
          <g>
            <path class="cls-1" d="m29.44,74.61c-.11.34-.62.5-1.12.35s-.82-.56-.73-.91.62-.5,1.12-.35.82.56.73.91Z"/>
            <path class="cls-1" d="m28.69,75.24c-.14,0-.29-.02-.43-.06-.62-.18-1-.7-.87-1.17.05-.18.17-.33.35-.43.28-.16.66-.18,1.04-.07.62.18,1,.7.87,1.17h0c-.12.36-.5.57-.95.57Zm-.37-1.38c-.14,0-.28.03-.38.08-.08.04-.13.1-.14.17-.06.22.16.53.58.65.4.12.78-.01.85-.21.05-.21-.17-.52-.58-.65-.11-.03-.22-.05-.33-.05Z"/>
          </g>
          <g>
            <path class="cls-1" d="m33.06,74.88c0,.37-.41.67-.93.67s-.97-.28-.97-.63.41-.67.95-.69.95.3.95.65h0Z"/>
            <path class="cls-1" d="m32.13,75.76c-.66,0-1.18-.37-1.18-.85s.51-.88,1.16-.9c.35-.03.7.1.93.32.16.15.25.35.25.54,0,.5-.5.89-1.15.89Zm.03-1.32s-.02,0-.04,0c-.44.02-.74.26-.74.47,0,.2.32.42.75.42.4,0,.72-.2.72-.46,0-.1-.06-.18-.12-.24-.13-.13-.35-.2-.58-.2Z"/>
          </g>
          <g>
            <path class="cls-1" d="m36.45,74.3c0,.35-.32.73-.84.82s-.99-.11-1.04-.47.3-.75.82-.84.99.13,1.06.48Z"/>
            <path class="cls-1" d="m35.37,75.36c-.27,0-.52-.07-.71-.2-.17-.12-.27-.28-.3-.47-.08-.49.37-.97.99-1.08.63-.11,1.21.17,1.31.65v.04c0,.49-.42.93-1.01,1.03-.09.02-.19.03-.28.03Zm.26-1.35c-.06,0-.13,0-.2.02-.42.08-.68.37-.65.59.01.07.05.13.13.18.15.11.41.15.67.1.42-.07.65-.35.66-.59-.05-.17-.29-.31-.61-.31Z"/>
          </g>
        </g>
      </g>
      <circle class="cls-4" cx="48.06" cy="48.06" r="46.56"/>
      <circle class="cls-4" cx="48.06" cy="48.06" r="45.8"/>
    </g>
  </g>
</svg>